<svg version="1.1" id="Layer_1" xmlns="http://www.w3.org/2000/svg" xmlns:xlink="http://www.w3.org/1999/xlink" x="0px" y="0px"
	 width="100%" viewBox="0 0 697 591" enable-background="new 0 0 697 591" xml:space="preserve">
<path fill="#000000" opacity="1.000000" stroke="none"
	d="
M401.815369,559.000000
	C387.896973,560.205627 378.413513,554.251099 372.313568,542.588501
	C371.316406,540.682068 371.053955,538.205322 371.051819,535.991516
	C370.988068,469.999664 371.000000,404.007751 371.000000,338.015839
	C371.000000,336.203613 371.000000,334.391418 371.000000,332.290405
	C362.055756,332.290405 353.316437,332.290405 344.000000,332.290405
	C344.000000,333.974609 344.000000,335.739594 344.000000,337.504547
	C344.000000,402.496582 343.898773,467.488892 344.083923,532.480408
	C344.121735,545.751282 330.760559,559.127075 317.345673,559.093567
	C240.355591,558.901245 163.364670,558.933350 86.374313,559.063782
	C73.119522,559.086243 59.920513,545.877136 59.941029,532.700623
	C60.061169,455.543610 59.990318,378.386322 60.008949,301.229095
	C60.012291,287.391510 72.324471,274.993530 86.444756,274.996002
	C141.937958,275.005737 197.431503,275.094513 252.923965,274.892853
	C260.774780,274.864288 268.520721,273.713684 275.294067,268.466278
	C281.483490,263.671265 284.931335,257.509247 285.842194,250.225174
	C286.862305,242.067627 286.914215,233.759247 286.954071,225.514404
	C287.079010,199.684845 287.135773,173.853104 286.908569,148.024933
	C286.848572,141.202576 286.418030,134.211761 284.846710,127.610336
	C281.630463,114.098320 267.322357,106.813477 256.518921,106.822060
	C199.274078,106.867561 142.026917,106.501060 84.785049,105.870186
	C72.076332,105.730125 60.943718,93.876915 60.005047,81.109367
	C59.363937,72.389168 60.491383,64.279297 66.821358,57.429867
	C71.716232,52.133316 77.442680,48.131252 84.563431,48.114655
	C162.886749,47.932087 241.211288,47.842014 319.533752,48.157566
	C332.394135,48.209377 343.843079,59.864971 343.893463,73.624710
	C344.132080,138.782532 344.000000,203.941711 344.000000,269.100403
	C344.000000,270.901917 344.000000,272.703400 344.000000,274.750671
	C353.029572,274.750671 361.767761,274.750671 371.000000,274.750671
	C371.000000,272.931335 371.000000,271.155304 371.000000,269.379242
	C371.000000,203.553970 371.194366,137.727585 370.819916,71.904434
	C370.752960,60.128761 384.476501,47.989971 395.082764,47.994225
	C432.244873,48.009121 469.407013,48.000000 506.569122,48.000000
	C547.397461,48.000000 588.226807,48.153858 629.053467,47.894176
	C639.546326,47.827435 654.365417,59.927277 654.272461,73.041832
	C653.720642,150.861725 654.000000,228.687515 654.000000,306.511322
	C654.000000,321.239899 643.066467,331.999817 628.098328,331.999908
	C563.106323,332.000183 498.114258,332.000000 433.122223,332.000000
	C431.299957,332.000000 429.477722,332.000000 427.000000,332.000000
	C427.000000,333.881165 427.000000,335.635040 427.000000,337.388916
	C427.000000,403.047546 426.659149,468.709656 427.328583,534.361450
	C427.442902,545.571655 412.585419,560.054016 401.815369,559.000000
M494.500000,106.000000
	C480.043335,106.734642 465.442810,104.217346 451.117371,107.988731
	C444.337646,109.773613 438.292572,112.411209 433.869537,118.383743
	C428.886536,125.112411 427.085693,132.634781 427.042725,140.673294
	C426.920807,163.489426 426.884766,186.307465 427.043793,209.123138
	C427.137207,222.526154 427.172089,235.964233 428.200928,249.311966
	C428.745880,256.381531 432.248383,262.608856 438.414276,267.143433
	C446.052032,272.760437 454.753937,274.715790 463.798431,274.898376
	C481.112152,275.247864 498.448334,275.376007 515.755920,274.898010
	C534.381165,274.383636 553.135620,277.184296 571.626892,272.988861
	C578.643860,271.396759 584.786865,268.526947 589.279480,262.416229
	C594.124939,255.825546 595.924988,248.445343 595.955566,240.576797
	C596.067627,211.764786 596.067810,182.951797 595.954285,154.139816
	C595.924377,146.566376 595.927002,138.907623 594.827393,131.448318
	C593.789917,124.410751 590.635254,118.159096 584.392273,113.696671
	C576.848206,108.304207 568.317688,106.249062 559.451904,106.108994
	C538.139343,105.772293 516.817871,106.000000 494.500000,106.000000
M287.000000,431.500000
	C287.000000,409.682587 287.070160,387.864716 286.931946,366.048187
	C286.908508,362.348389 286.725647,358.340057 285.313263,355.030426
	C283.139313,349.936310 280.674286,344.469055 276.824768,340.700439
	C270.565491,334.572693 261.700531,332.359650 253.345795,332.220367
	C220.878326,331.679199 188.395569,331.875977 155.920959,332.122345
	C150.521591,332.163330 145.042084,333.454865 139.759079,334.796478
	C124.142281,338.762146 118.299065,351.093811 118.131012,365.277252
	C117.726547,399.414398 117.950943,433.559753 118.074036,467.701233
	C118.086693,471.209076 118.475700,474.995667 119.842804,478.153961
	C121.982521,483.097137 124.389565,488.276886 127.978088,492.159882
	C133.666290,498.314880 142.426208,500.696930 149.897736,500.620880
	C187.506317,500.237915 225.203903,503.613037 262.717529,498.892700
	C269.657532,498.019440 275.653198,494.655731 280.081635,488.740448
	C285.188477,481.918976 286.904266,474.204803 286.975861,465.975555
	C287.072906,454.817810 287.000000,443.658600 287.000000,431.500000
z"/>
</svg>