<svg version="1.1" id="Layer_1" xmlns="http://www.w3.org/2000/svg" xmlns:xlink="http://www.w3.org/1999/xlink" x="0px" y="0px"
	 width="100%" viewBox="0 0 1024 368" enable-background="new 0 0 1024 368" xml:space="preserve">
<path fill="#000000" opacity="1.000000" stroke="none" 
	d="
M274.463593,213.468216 
	C277.088654,209.580704 279.457977,205.967651 281.111115,201.929474 
	C281.835632,200.159637 282.986847,198.567917 285.190491,198.953918 
	C287.580597,199.372604 288.424896,201.279709 288.218689,203.440659 
	C287.967285,206.075897 287.484192,208.706177 286.883087,211.287796 
	C284.757629,220.416702 286.304535,228.175232 294.821167,233.478943 
	C296.592072,234.581757 298.094177,236.018311 297.889648,238.264801 
	C297.655670,240.834961 295.463776,241.620529 293.431488,242.447617 
	C288.720856,244.364670 283.638580,244.291931 278.731598,245.129166 
	C275.438904,245.690964 272.140656,246.177536 269.012299,247.335571 
	C265.356964,248.688644 262.109344,248.934326 260.009155,244.543228 
	C255.005722,247.859604 251.464813,253.802490 245.028381,252.960205 
	C237.469193,251.970993 237.467773,245.203354 236.389450,239.097092 
	C232.632339,241.281815 229.890366,244.669556 225.870148,245.859665 
	C221.209183,247.239471 218.203018,245.011826 216.006897,240.642670 
	C204.670288,245.395386 194.186646,244.431137 185.016907,235.141357 
	C178.795197,240.912415 173.305344,246.871857 168.088486,253.090881 
	C166.032425,255.541931 163.802002,257.790741 160.900070,259.181610 
	C156.305145,261.383911 151.868744,258.311676 152.413055,253.259705 
	C152.606064,251.468246 153.278152,249.708435 153.874100,247.983444 
	C159.728455,231.038559 167.978912,215.288605 177.685150,200.025482 
	C171.032867,203.235764 164.716736,207.510147 157.652145,209.061951 
	C146.695755,211.468674 143.171555,218.062408 141.153458,228.482635 
	C135.742752,256.420166 129.042038,284.106201 119.476585,311.006866 
	C117.644341,316.159637 116.610428,321.605469 115.353668,326.950287 
	C114.609177,330.116547 114.104996,333.894470 109.815613,333.093079 
	C105.434059,332.274506 105.994965,328.431671 106.385117,325.008820 
	C107.739624,313.125214 112.706665,302.275604 116.038071,290.958618 
	C122.809509,267.955566 128.346268,244.645172 133.364014,221.206802 
	C133.566025,220.263199 133.479141,219.257767 133.532272,218.170410 
	C130.877777,216.813354 128.496582,218.214584 126.210854,218.712387 
	C104.856186,223.363129 83.429810,227.340698 61.423092,226.260635 
	C58.440304,226.114243 56.868877,227.447571 55.502907,229.817398 
	C49.598984,240.060150 43.289719,250.103226 40.488079,261.796844 
	C40.166649,263.138458 39.887596,264.595520 38.127438,264.445099 
	C36.202778,264.280609 35.760078,262.729126 35.885277,261.142242 
	C36.136459,257.958405 37.202045,254.969727 38.426800,252.042526 
	C41.454075,244.807373 44.918900,237.795639 49.011005,231.094849 
	C49.937679,229.577423 51.242470,228.163681 51.058659,225.863205 
	C46.053864,224.164932 40.733673,224.012070 35.523388,223.315292 
	C32.699856,222.937698 29.908552,222.519485 27.326942,221.277649 
	C25.713579,220.501572 24.673483,219.237625 24.887192,217.314270 
	C25.080173,215.577454 26.341879,214.711502 27.830664,214.274414 
	C30.429958,213.511276 33.572571,212.895859 35.653595,214.187836 
	C40.946800,217.474060 46.935982,216.601654 52.489979,218.039902 
	C55.010471,218.692581 56.566273,217.946609 57.854664,215.749847 
	C76.570053,183.838989 100.567657,155.828812 123.389709,126.941864 
	C134.231262,113.219208 145.362305,99.681671 154.462570,84.681160 
	C156.873871,80.706482 158.785355,76.426819 160.892624,72.270096 
	C162.151505,69.786896 162.961349,66.377472 166.721283,67.462334 
	C170.348618,68.508942 170.510956,71.721397 169.896164,74.883484 
	C167.705536,86.150673 165.295258,97.378059 163.285812,108.676994 
	C158.538742,135.369293 153.986160,162.096115 149.326721,188.804047 
	C148.274918,194.832932 147.107986,200.841705 145.897598,207.380737 
	C151.522781,206.407135 156.260773,204.403656 160.839111,202.263458 
	C168.658951,198.608017 176.674820,195.202515 183.292007,189.406906 
	C184.464462,188.380005 185.750168,187.573013 187.354202,188.412872 
	C188.855743,189.199081 189.253662,190.600754 189.304932,192.196198 
	C189.401093,195.188950 187.988083,197.691803 186.627365,200.150070 
	C181.142441,210.059113 175.266891,219.757736 170.611359,230.109085 
	C169.252884,233.129578 167.951752,236.175842 166.243622,240.080582 
	C172.508224,235.781586 175.799561,229.865601 180.768188,225.634644 
	C186.016922,221.165115 188.108673,221.492203 191.331146,227.627289 
	C196.620956,237.698288 213.262833,239.016037 220.205246,229.877457 
	C222.219864,227.225510 224.040909,224.427353 225.997223,221.729950 
	C227.267365,219.978622 228.513397,218.190704 229.958221,216.588715 
	C234.757401,211.267563 240.019669,209.541611 243.950500,211.867554 
	C247.529388,213.985260 248.778046,220.515442 246.508316,226.540405 
	C244.840179,230.968460 244.095764,235.538940 243.805527,240.202103 
	C243.672897,242.333038 243.383377,244.964615 245.558578,246.059311 
	C247.778702,247.176605 249.628555,245.176605 251.255096,243.857483 
	C255.563431,240.363419 258.911469,235.974350 262.082275,231.477203 
	C266.210388,225.622330 270.200531,219.670135 274.463593,213.468216 
M67.170387,210.604736 
	C65.770760,213.166885 63.424408,215.254257 63.016586,218.516739 
	C63.770718,218.847977 64.345230,219.267014 64.959496,219.336975 
	C66.442955,219.505936 67.946632,219.598831 69.439262,219.570389 
	C90.310318,219.172791 110.874939,216.430817 131.210403,211.725098 
	C134.772552,210.900818 136.085785,208.927368 136.669952,205.661209 
	C138.104172,197.642517 139.795135,189.669815 141.237808,181.652527 
	C146.383499,153.056686 151.468765,124.449959 156.689178,95.218643 
	C147.769455,106.536919 139.353806,117.457344 130.682602,128.170914 
	C109.002396,154.957581 86.307732,180.956665 67.170387,210.604736 
M269.339111,230.781601 
	C268.284515,232.934540 266.071869,234.509186 265.819763,237.789856 
	C271.808289,236.963303 277.417053,236.189148 283.519806,235.346832 
	C282.038727,232.369278 280.702454,230.089890 279.751587,227.659729 
	C278.750244,225.100494 278.117157,222.397171 277.156891,219.203796 
	C274.531006,223.097580 272.139191,226.644272 269.339111,230.781601 
M228.194855,231.590927 
	C227.146439,233.362198 226.098007,235.133453 224.527893,237.786072 
	C233.405670,232.681381 240.718033,223.296356 239.585037,218.625900 
	C233.937561,221.140533 232.160004,226.906525 228.194855,231.590927 
z"/>
<path fill="#000000" opacity="1.000000" stroke="none" 
	d="
M397.797241,223.755707 
	C397.706482,220.033676 397.884460,216.766968 398.295227,213.370743 
	C391.824188,221.104263 386.020172,229.188721 378.842865,236.104691 
	C376.200745,238.650589 373.676971,241.325546 370.370911,243.044800 
	C364.410675,246.144302 360.236115,244.212021 359.076447,237.573135 
	C358.545624,234.534180 358.632874,231.387268 358.408936,227.794128 
	C353.855194,230.067337 351.366302,234.049683 347.582153,236.363800 
	C346.028259,237.314041 344.715759,238.650101 343.207886,239.686020 
	C336.693695,244.161270 332.922058,242.577927 331.391235,234.937103 
	C327.282745,238.833557 323.092957,242.803970 318.906952,246.778351 
	C316.565979,249.000977 314.141846,251.326202 310.584137,249.807556 
	C307.087189,248.314850 305.911041,245.075302 305.892090,241.607376 
	C305.827637,229.816345 308.474762,218.506516 312.338562,207.434708 
	C313.040833,205.422363 314.160797,203.480545 313.792084,200.949677 
	C307.633942,200.318542 300.970276,202.800400 294.646881,199.301697 
	C297.073120,195.741608 299.818268,196.820541 302.137390,196.792938 
	C315.076904,196.638962 315.134613,196.709885 318.968018,184.649704 
	C322.245270,174.339203 325.387421,163.985596 328.554321,153.640320 
	C329.406647,150.855957 330.139557,147.702667 333.993103,148.593597 
	C337.725830,149.456604 338.205444,152.749084 337.567535,155.802048 
	C335.553619,165.440628 331.664734,174.518295 328.761353,183.895248 
	C327.835480,186.885529 326.803741,189.843079 325.760956,192.995483 
	C330.237427,194.905670 334.582642,191.351715 338.922485,193.600861 
	C337.582764,198.134323 333.569122,198.212250 330.510223,198.030716 
	C324.980164,197.702560 323.315308,200.393066 321.633789,205.081985 
	C317.974548,215.285461 314.123169,225.368958 312.728699,236.204758 
	C312.393555,238.809174 311.888397,241.375839 313.050140,244.680283 
	C317.902710,240.896210 321.621307,236.743851 325.363708,232.616409 
	C332.085297,225.203278 338.271851,217.436081 342.883209,208.455719 
	C344.932068,204.465729 347.688873,200.845428 351.897247,198.672440 
	C357.679291,195.686859 361.583557,196.689499 365.069763,202.122147 
	C365.822784,203.295639 366.045654,204.656448 368.044220,205.012451 
	C373.217834,205.934006 373.853119,207.621185 371.167542,211.992554 
	C366.740723,219.198120 365.764862,227.248688 365.367126,235.441788 
	C365.318726,236.439087 365.408905,237.461258 366.705780,238.317581 
	C369.869293,238.194321 372.162354,235.897202 374.396149,233.806610 
	C384.666748,224.194534 392.734650,212.748077 401.000183,201.472153 
	C402.973236,198.780472 404.386963,194.070969 408.665466,196.130020 
	C412.876892,198.156769 410.563995,202.341309 409.305634,205.450241 
	C406.945312,211.281860 405.869202,217.234131 406.229858,223.504639 
	C406.366455,225.879868 406.935486,228.027206 408.480652,230.823929 
	C417.419220,224.573761 426.600189,219.266037 432.141022,209.723022 
	C434.230804,206.123718 435.986694,202.328857 438.115021,198.754257 
	C439.475250,196.469681 441.196960,193.843338 444.418274,195.579559 
	C447.657166,197.325272 446.495789,199.930298 445.077942,202.437485 
	C439.885742,211.618790 435.743042,221.217178 433.753113,231.643402 
	C433.290497,234.067413 432.738647,236.501755 433.938477,239.256012 
	C436.719818,238.591949 438.536102,236.636429 440.404022,234.861526 
	C448.789093,226.893753 455.646088,217.676361 462.045135,208.099594 
	C463.783020,205.498642 465.234344,202.543564 468.830963,206.121231 
	C469.376709,206.664185 470.709930,206.501129 471.681396,206.517303 
	C481.603607,206.682632 485.920074,212.468704 483.135101,221.923660 
	C482.764130,223.183044 482.328857,224.423492 481.784149,226.101700 
	C484.432678,225.995193 485.951782,224.424438 487.575378,223.211197 
	C496.463928,216.569336 503.633972,208.700012 505.769287,197.303879 
	C505.860870,196.815140 506.009033,196.331619 506.181488,195.864349 
	C507.123535,193.311829 508.067230,190.407196 511.599152,191.382599 
	C514.790344,192.263885 514.402100,195.095581 514.004333,197.631531 
	C513.256775,202.397156 512.317200,207.137268 511.721100,211.920837 
	C510.997589,217.726624 511.110840,223.524063 512.266479,229.316422 
	C512.948669,232.735336 514.621765,234.140213 518.117249,233.772293 
	C528.710815,232.657303 539.330200,232.005646 549.976868,231.458649 
	C564.140259,230.730957 578.288513,230.896317 592.444214,230.721497 
	C595.437805,230.684525 598.410583,230.683777 601.402954,230.180878 
	C604.277039,229.697876 606.913574,230.651245 607.521484,233.879425 
	C608.103943,236.971664 605.928711,238.428238 603.283142,239.054321 
	C599.146179,240.033386 595.008484,243.108734 590.822937,238.673752 
	C589.988220,237.789291 587.629272,238.254532 585.972534,238.248184 
	C565.646973,238.170181 545.319763,238.081619 525.021240,239.391251 
	C521.066528,239.646393 517.068420,239.710358 514.010925,243.035736 
	C512.891113,244.253723 510.976807,244.310043 509.277161,244.237656 
	C502.454163,243.947174 495.631683,243.645172 488.809296,243.340256 
	C485.914215,243.210846 483.905487,241.861267 483.906250,238.830399 
	C483.907043,235.607666 486.237671,234.715378 489.028625,234.695328 
	C492.861023,234.667786 496.693787,234.659592 500.526184,234.682175 
	C502.837494,234.695801 504.111481,233.622559 503.618134,231.313095 
	C502.650024,226.780746 502.686615,222.161133 502.580719,216.693161 
	C497.425751,221.674927 493.092102,226.229828 487.662476,229.478653 
	C482.316071,232.677719 476.590729,235.015121 471.745117,239.356064 
	C466.713776,243.863373 460.658112,241.035355 458.744843,234.391998 
	C457.807312,231.136566 457.896973,227.860886 457.976318,224.284058 
	C454.594543,228.713135 451.261108,233.180237 447.815826,237.559341 
	C445.022888,241.109161 441.918762,244.386154 437.965485,246.673935 
	C431.373596,250.488647 425.509979,247.418289 424.750488,239.832428 
	C424.231262,234.646500 425.764709,229.672943 426.808960,223.316589 
	C420.014526,228.921890 412.704651,231.895477 408.083893,238.446304 
	C407.437805,239.362305 406.500824,240.398849 405.499634,240.685928 
	C398.910889,242.575043 392.109436,243.096909 385.298309,243.134735 
	C383.122589,243.146835 381.663818,241.436554 381.374023,239.228531 
	C381.066193,236.883179 382.476440,235.309311 384.546936,234.757172 
	C386.770599,234.164154 389.129578,234.046722 391.438873,233.815353 
	C393.903625,233.568405 396.445068,233.776947 398.949127,232.330048 
	C399.507263,229.564224 397.744415,226.980286 397.797241,223.755707 
M355.965302,218.310242 
	C359.508545,214.348297 359.833344,210.449371 356.589020,205.331268 
	C348.677307,211.351578 345.721283,220.055908 342.630371,228.784180 
	C347.811005,226.448990 351.163177,222.051193 355.965302,218.310242 
M467.937714,223.456421 
	C467.748199,221.085114 469.305420,218.712357 467.683350,216.305634 
	C465.560547,222.051193 464.213959,227.852066 465.854523,234.259201 
	C469.017181,233.618271 470.887390,232.896545 469.306732,229.543396 
	C468.545837,227.929276 468.381714,226.033844 467.937714,223.456421 
M475.921387,221.227921 
	C476.774200,218.466187 477.661224,215.691635 473.364288,213.945709 
	C472.743347,218.262848 472.671967,221.711349 473.357544,225.390045 
	C474.959076,224.432266 475.183380,223.074600 475.921387,221.227921 
z"/>
<path fill="#000000" opacity="1.000000" stroke="none" 
	d="
M466.032776,131.035553 
	C459.380249,137.181915 453.943481,143.904572 448.787720,150.889206 
	C447.638580,152.445923 446.537415,155.481781 443.882629,153.602158 
	C441.645264,152.018021 443.670715,149.936325 444.619629,148.332382 
	C455.043610,130.712784 469.822327,117.439369 486.921661,106.626083 
	C515.411804,88.609520 546.854187,78.846519 579.931396,73.642700 
	C599.586548,70.550484 619.348572,69.733841 639.153137,70.800613 
	C664.735779,72.178642 689.362427,77.252945 711.003052,92.082108 
	C739.666199,111.723396 746.311035,139.496323 729.436951,169.953979 
	C718.968384,188.849670 703.343994,203.109924 686.374634,215.934921 
	C675.859192,223.882172 664.840210,231.175293 651.615906,233.963089 
	C648.387512,234.643646 648.029114,237.025116 647.392700,239.406250 
	C641.677734,260.789429 635.990845,282.180084 630.254761,303.557556 
	C629.783386,305.314331 629.077393,307.019135 628.354675,308.693817 
	C627.821899,309.928284 627.061829,311.243500 625.444580,310.904968 
	C623.620667,310.523224 623.211853,308.883087 623.400635,307.366577 
	C623.913330,303.247040 624.383545,299.095093 625.318848,295.059875 
	C629.525574,276.909973 633.886108,258.795685 638.196960,240.669937 
	C638.616028,238.907990 639.264648,237.179108 638.885254,235.059937 
	C634.908020,233.669846 630.386536,233.767181 626.679504,231.408432 
	C623.566650,229.427780 620.909485,227.124130 622.859375,222.886902 
	C624.628174,219.043152 628.384644,218.394180 630.553772,221.929779 
	C632.265076,224.719223 634.705200,224.980881 637.240295,225.512970 
	C640.285706,226.152130 642.116333,225.262894 642.980591,221.814911 
	C649.291626,196.637589 655.365356,171.413574 659.697815,145.802979 
	C660.363525,141.867935 660.948120,137.915634 661.751404,134.008575 
	C662.380127,130.950653 662.968994,126.734993 666.898315,127.334915 
	C670.640991,127.906334 670.570618,132.073746 670.049866,135.219467 
	C668.093750,147.034515 666.094299,158.846573 663.826111,170.604797 
	C660.392883,188.402740 656.054565,206.003952 651.479980,223.926834 
	C654.759460,224.410690 657.289673,223.240875 659.726196,222.015213 
	C683.732849,209.939102 703.358887,192.614197 718.779236,170.807587 
	C727.994385,157.776123 732.133545,142.925323 728.953308,126.757545 
	C726.833801,115.982323 719.802979,108.434235 711.723206,101.761444 
	C695.641602,88.480171 676.519531,82.233963 656.323792,79.533379 
	C613.850586,73.853844 572.265381,78.528625 531.812195,92.504250 
	C507.495056,100.905266 485.168304,112.960228 466.032776,131.035553 
z"/>
<path fill="#000000" opacity="1.000000" stroke="none" 
	d="
M859.553101,225.568298 
	C863.294128,219.827240 866.831604,214.382538 870.370483,208.938736 
	C871.861816,206.644653 873.042664,203.002579 876.618896,205.202621 
	C880.036560,207.305115 877.796509,210.347809 876.312012,212.610352 
	C873.276917,217.236099 872.327942,222.436401 871.526428,227.709213 
	C871.112549,230.431931 871.214966,233.154999 873.809570,234.882477 
	C876.326782,236.558441 878.695923,235.225250 880.804321,233.928482 
	C890.469055,227.984116 896.699097,218.939728 902.456177,209.512619 
	C904.450195,206.247498 906.151245,202.798218 908.236084,199.595764 
	C909.425415,197.768906 911.170044,196.020737 913.630920,197.616394 
	C915.936462,199.111374 915.486084,201.301819 914.392761,203.371796 
	C910.338989,211.046799 906.925232,218.990341 904.290344,227.262573 
	C903.746643,228.969528 902.779175,230.642151 903.888855,233.218369 
	C908.355957,228.812851 911.520752,223.877914 914.413635,218.732788 
	C915.305664,217.146271 915.963501,215.393326 917.764038,214.517166 
	C920.884033,212.999008 923.973877,215.003098 924.181763,218.980072 
	C924.381287,222.799515 924.074341,226.643723 924.223572,230.467926 
	C924.389221,234.714066 925.969177,238.442719 930.072144,240.185349 
	C934.390991,242.019653 937.512390,239.308502 939.999329,236.302460 
	C945.844238,229.237411 951.249939,221.912170 953.268066,212.617630 
	C954.037781,209.072968 955.369202,205.590927 956.897278,202.289902 
	C958.022766,199.858597 960.373596,198.306732 963.070740,199.765411 
	C965.907227,201.299438 964.902100,203.480103 963.903870,206.139832 
	C960.107849,216.253708 957.050842,226.608902 956.181885,237.477097 
	C955.857239,241.536942 957.742310,242.014114 961.038635,240.777420 
	C966.210571,238.837051 970.129822,235.264374 973.598389,231.173309 
	C982.304871,220.904465 988.334961,209.039444 993.764709,196.834747 
	C994.982300,194.097900 996.007080,191.265671 997.375549,188.608627 
	C998.428772,186.563690 999.771240,184.039444 1002.640564,185.252258 
	C1005.817261,186.595001 1004.813354,189.194427 1003.768372,191.625931 
	C999.285461,202.057053 997.318054,212.926697 998.172852,224.279648 
	C998.606567,230.040375 1000.221619,235.056854 1005.989319,237.765472 
	C1007.929138,238.676437 1009.180847,240.312256 1008.640869,242.605270 
	C1008.135010,244.753830 1006.636414,245.964203 1004.393250,246.236572 
	C996.807495,247.157669 989.239075,248.255859 981.634460,248.971741 
	C978.128235,249.301819 975.276001,247.795380 975.094910,243.774399 
	C974.934570,240.214325 979.189941,237.215256 983.458191,237.919128 
	C986.386169,238.401978 989.231262,239.415405 992.507935,237.797653 
	C991.636536,234.776108 990.564026,231.837616 989.977539,228.805130 
	C989.385803,225.746201 989.276367,222.594009 988.929138,219.224930 
	C985.259399,224.726868 981.845520,230.195572 978.073059,235.404572 
	C974.121033,240.861496 969.316833,245.516693 962.872314,247.965881 
	C953.975769,251.346985 948.711060,248.161743 947.411621,238.338058 
	C942.505005,243.348099 937.886841,248.771362 930.259644,247.872086 
	C922.717590,246.982834 919.184814,241.184204 915.900818,234.453094 
	C912.139038,238.428879 908.740601,242.172546 905.166321,245.740021 
	C903.108704,247.793655 901.121033,250.802063 897.644470,249.511520 
	C894.074829,248.186478 893.467224,244.584305 892.865967,241.289963 
	C892.330627,238.357040 893.261719,235.437439 893.644775,232.192337 
	C874.516052,245.355072 869.532776,245.343948 863.949768,231.908035 
	C861.056213,235.352798 858.463257,238.744125 855.537048,241.818146 
	C853.530823,243.925735 851.308044,246.800323 847.977783,245.653641 
	C844.319885,244.394180 843.817383,240.787003 843.706543,237.339767 
	C843.394470,227.625931 846.845398,218.711197 849.658936,209.668259 
	C850.498535,206.969803 851.450378,204.301529 852.472351,201.666565 
	C853.003845,200.296204 854.121033,199.571686 855.664124,199.928894 
	C857.199158,200.284225 857.960876,201.497238 857.837219,202.879913 
	C857.645935,205.018906 857.185242,207.152176 856.647339,209.238495 
	C854.737854,216.643875 852.120911,223.861740 850.802063,231.425888 
	C850.573669,232.735626 850.170288,234.011780 850.790588,235.801010 
	C854.780151,233.307327 856.620300,229.177765 859.553101,225.568298 
z"/>
<path fill="#000000" opacity="1.000000" stroke="none" 
	d="
M835.702698,209.278534 
	C845.153381,218.617676 840.627136,237.686951 828.320068,241.820480 
	C823.840576,243.325012 820.040588,241.929062 817.715393,237.734390 
	C816.760376,236.011536 816.137573,234.104523 815.236328,231.981323 
	C812.860168,233.376373 810.685608,234.880249 808.327515,235.996490 
	C800.028748,239.924896 791.751038,238.772293 783.663574,235.343506 
	C779.534119,233.592773 775.558105,231.455307 771.605469,229.320908 
	C768.776001,227.793030 767.002319,228.521500 766.598450,231.571655 
	C765.228210,241.920242 763.485046,252.265381 764.484192,262.765015 
	C764.802856,266.113983 763.357117,268.571045 761.132141,270.670441 
	C759.826843,271.902130 758.051147,272.118317 756.508911,271.029907 
	C754.216980,269.412384 753.856995,267.181122 754.244202,264.418488 
	C755.259094,257.178741 755.798157,249.871994 756.824097,242.634094 
	C757.822327,235.591309 759.189270,228.600769 760.630066,220.215256 
	C756.107788,226.066162 752.377502,230.973358 748.557739,235.809937 
	C745.238892,240.012253 741.553833,243.891876 736.960083,246.707611 
	C730.390137,250.734726 724.718201,248.299316 723.914490,240.716492 
	C722.331055,225.778290 727.727722,212.218887 733.110901,198.735565 
	C733.712524,197.228683 735.134216,196.513153 736.833435,197.005249 
	C738.486755,197.484070 739.358887,198.730331 739.197632,200.383286 
	C739.055054,201.844849 738.600647,203.295212 738.139893,204.703384 
	C734.982300,214.352432 731.650085,223.950790 730.903198,234.197144 
	C730.744629,236.372223 730.552490,238.498886 731.710388,240.786728 
	C734.370056,240.456665 735.996643,238.514465 737.708984,236.820633 
	C749.926270,224.735580 759.392761,210.561554 766.824646,195.266525 
	C770.461304,187.782196 771.491089,179.021393 773.619263,170.817169 
	C775.129395,164.995483 777.056335,159.342255 779.728271,153.943604 
	C781.010193,151.353317 782.333618,148.201889 785.731689,149.110947 
	C789.484009,150.114746 788.268250,153.580521 787.853088,156.313080 
	C786.241333,166.921524 783.204163,177.131973 778.411743,186.716843 
	C773.705261,196.129654 772.986938,206.489914 770.186401,216.719574 
	C773.001831,217.065567 774.138611,215.176987 775.374634,213.897171 
	C782.316406,206.708786 789.156738,199.422241 796.007019,192.145935 
	C797.488770,190.572098 798.920715,188.282410 801.297424,190.333008 
	C803.580627,192.302902 801.770935,194.395126 800.468323,196.016830 
	C794.103638,203.940567 787.473572,211.634918 780.211182,218.767319 
	C778.945068,220.010788 777.256714,220.984695 776.849731,222.933685 
	C793.409424,235.464523 808.739014,233.718994 816.814636,219.065201 
	C811.593018,213.344391 813.214111,209.242340 820.492859,206.524414 
	C826.380066,204.326111 830.938477,205.267563 835.702698,209.278534 
M832.742737,218.713562 
	C831.632751,216.876480 830.547058,214.429657 827.900879,215.951553 
	C824.615967,217.840836 822.952698,230.261230 825.208313,233.877960 
	C830.830505,231.161499 833.557739,226.090225 832.742737,218.713562 
z"/>
<path fill="#000000" opacity="1.000000" stroke="none" 
	d="
M969.948486,171.327087 
	C968.298035,176.788483 963.957581,177.782455 960.544067,173.829147 
	C958.881653,171.903839 958.291626,169.721176 960.143616,167.596832 
	C961.927917,165.550079 964.086121,165.415939 966.313049,166.949966 
	C967.817932,167.986526 969.161926,169.185532 969.948486,171.327087 
z"/>
<path fill="#000000" opacity="1.000000" stroke="none" 
	d="
M745.231995,183.270889 
	C741.627502,182.261490 739.725464,180.197800 741.426147,177.022186 
	C743.159790,173.784912 746.147278,174.825348 748.743652,176.204681 
	C750.271790,177.016495 751.440857,178.346085 751.007446,180.183960 
	C750.353943,182.954758 748.153503,183.489578 745.231995,183.270889 
z"/>
<path fill="#000000" opacity="1.000000" stroke="none" 
	d="
M438.820862,178.065506 
	C437.210510,175.063660 438.430603,173.232285 440.790039,172.189697 
	C443.041443,171.194885 444.968964,172.245819 446.361206,174.108765 
	C447.386047,175.480103 447.222626,176.954117 445.967316,178.095764 
	C443.780670,180.084396 441.449951,180.756332 438.820862,178.065506 
z"/>
</svg>